<mxfile host="app.diagrams.net" modified="2024-04-10T06:27:23.207Z" agent="Mozilla/5.0 (X11; Linux x86_64; rv:124.0) Gecko/20100101 Firefox/124.0" version="24.0.1" etag="mOdebqCh5IGFX8tjavLz" type="github">
  <diagram name="Page-1" id="nZ9v8hnwNLv4PyRfmz9N">
    <mxGraphModel>
      <root>
        <mxCell id="0" />
        <mxCell id="1" parent="0" />
      </root>
    </mxGraphModel>
  </diagram>
</mxfile>
